<svg width="183" height="28" viewBox="0 0 183 28" fill="none" xmlns="http://www.w3.org/2000/svg">
<path d="M7.5 12.1865H5V14.8946H7.5V12.1865ZM12.5 12.1865H10V14.8946H12.5V12.1865ZM17.5 12.1865H15V14.8946H17.5V12.1865ZM20 2.70811H18.75V0H16.25V2.70811H6.25V0H3.75V2.70811H2.5C1.1125 2.70811 0.0125 3.92675 0.0125 5.41621L0 24.3729C0 25.8624 1.1125 27.0811 2.5 27.0811H20C21.375 27.0811 22.5 25.8624 22.5 24.3729V5.41621C22.5 3.92675 21.375 2.70811 20 2.70811ZM20 24.3729H2.5V9.47837H20V24.3729Z" fill="#663399"/>
<path d="M46.17 20C45.75 20 45.54 19.7947 45.54 19.384C45.54 18.9827 45.75 18.782 46.17 18.782H47.878V11.796L46.562 12.636C46.3847 12.748 46.2167 12.7807 46.058 12.734C45.9087 12.678 45.792 12.58 45.708 12.44C45.6333 12.3 45.61 12.1507 45.638 11.992C45.6753 11.824 45.7827 11.684 45.96 11.572L47.892 10.354C48.0507 10.2607 48.2 10.186 48.34 10.13C48.4893 10.0647 48.6293 10.032 48.76 10.032C48.9187 10.032 49.0493 10.0787 49.152 10.172C49.264 10.2653 49.32 10.41 49.32 10.606V18.782H50.888C51.3173 18.782 51.532 18.9827 51.532 19.384C51.532 19.7947 51.3173 20 50.888 20H46.17ZM54.7745 20.098C54.5132 20.098 54.3219 20.0093 54.2005 19.832C54.0885 19.6547 54.0979 19.4307 54.2285 19.16L58.3165 11.348H53.7945C53.3652 11.348 53.1505 11.1473 53.1505 10.746C53.1505 10.3353 53.3652 10.13 53.7945 10.13H59.2965C59.5019 10.13 59.6652 10.186 59.7865 10.298C59.9172 10.4007 59.9825 10.55 59.9825 10.746C59.9825 10.914 59.9592 11.0587 59.9125 11.18C59.8752 11.3013 59.8192 11.4367 59.7445 11.586L55.5865 19.622C55.4279 19.9393 55.1572 20.098 54.7745 20.098ZM61.7691 20.448C61.7037 20.6347 61.6011 20.756 61.4611 20.812C61.3304 20.8773 61.1904 20.8867 61.0411 20.84C60.9011 20.8027 60.7937 20.7187 60.7191 20.588C60.6351 20.4667 60.6211 20.308 60.6771 20.112L63.9671 9.92C64.0231 9.73333 64.1211 9.612 64.2611 9.556C64.4011 9.49067 64.5411 9.48133 64.6811 9.528C64.8304 9.56533 64.9424 9.64933 65.0171 9.78C65.1011 9.90133 65.1151 10.0553 65.0591 10.242L61.7691 20.448ZM69.1453 20.126C67.9973 20.126 67.12 19.692 66.5133 18.824C65.916 17.9467 65.6173 16.6913 65.6173 15.058C65.6173 13.3967 65.916 12.1413 66.5133 11.292C67.12 10.4333 67.9973 10.004 69.1453 10.004C70.3026 10.004 71.18 10.4333 71.7773 11.292C72.3746 12.1413 72.6733 13.392 72.6733 15.044C72.6733 16.6867 72.37 17.9467 71.7633 18.824C71.166 19.692 70.2933 20.126 69.1453 20.126ZM69.1453 18.922C69.8546 18.922 70.382 18.6093 70.7273 17.984C71.0726 17.3493 71.2453 16.3693 71.2453 15.044C71.2453 13.7093 71.0726 12.7387 70.7273 12.132C70.3913 11.516 69.864 11.208 69.1453 11.208C68.436 11.208 67.9086 11.516 67.5633 12.132C67.218 12.748 67.0453 13.7187 67.0453 15.044C67.0453 16.3693 67.218 17.3493 67.5633 17.984C67.9086 18.6093 68.436 18.922 69.1453 18.922ZM75.5098 20C75.0898 20 74.8798 19.7947 74.8798 19.384C74.8798 18.9827 75.0898 18.782 75.5098 18.782H77.2178V11.796L75.9018 12.636C75.7245 12.748 75.5565 12.7807 75.3978 12.734C75.2485 12.678 75.1318 12.58 75.0478 12.44C74.9732 12.3 74.9498 12.1507 74.9778 11.992C75.0152 11.824 75.1225 11.684 75.2998 11.572L77.2318 10.354C77.3905 10.2607 77.5398 10.186 77.6798 10.13C77.8292 10.0647 77.9692 10.032 78.0998 10.032C78.2585 10.032 78.3892 10.0787 78.4918 10.172C78.6038 10.2653 78.6598 10.41 78.6598 10.606V18.782H80.2278C80.6572 18.782 80.8718 18.9827 80.8718 19.384C80.8718 19.7947 80.6572 20 80.2278 20H75.5098ZM83.2044 16.836C83.0364 16.836 82.8964 16.78 82.7844 16.668C82.6724 16.556 82.6164 16.4207 82.6164 16.262C82.6164 16.094 82.6724 15.9587 82.7844 15.856C82.8964 15.744 83.0364 15.688 83.2044 15.688H86.2844C86.443 15.688 86.5784 15.744 86.6904 15.856C86.8024 15.9587 86.8584 16.094 86.8584 16.262C86.8584 16.4207 86.8024 16.556 86.6904 16.668C86.5784 16.78 86.443 16.836 86.2844 16.836H83.2044ZM89.9063 20C89.4863 20 89.2763 19.7947 89.2763 19.384C89.2763 18.9827 89.4863 18.782 89.9063 18.782H91.6143V11.796L90.2983 12.636C90.121 12.748 89.953 12.7807 89.7943 12.734C89.645 12.678 89.5283 12.58 89.4443 12.44C89.3697 12.3 89.3463 12.1507 89.3743 11.992C89.4117 11.824 89.519 11.684 89.6963 11.572L91.6283 10.354C91.787 10.2607 91.9363 10.186 92.0763 10.13C92.2257 10.0647 92.3657 10.032 92.4963 10.032C92.655 10.032 92.7857 10.0787 92.8883 10.172C93.0003 10.2653 93.0563 10.41 93.0563 10.606V18.782H94.6243C95.0537 18.782 95.2683 18.9827 95.2683 19.384C95.2683 19.7947 95.0537 20 94.6243 20H89.9063ZM98.5109 20.098C98.2495 20.098 98.0582 20.0093 97.9369 19.832C97.8249 19.6547 97.8342 19.4307 97.9649 19.16L102.053 11.348H97.5309C97.1015 11.348 96.8869 11.1473 96.8869 10.746C96.8869 10.3353 97.1015 10.13 97.5309 10.13H103.033C103.238 10.13 103.402 10.186 103.523 10.298C103.654 10.4007 103.719 10.55 103.719 10.746C103.719 10.914 103.696 11.0587 103.649 11.18C103.612 11.3013 103.556 11.4367 103.481 11.586L99.3229 19.622C99.1642 19.9393 98.8935 20.098 98.5109 20.098ZM105.505 20.448C105.44 20.6347 105.337 20.756 105.197 20.812C105.067 20.8773 104.927 20.8867 104.777 20.84C104.637 20.8027 104.53 20.7187 104.455 20.588C104.371 20.4667 104.357 20.308 104.413 20.112L107.703 9.92C107.759 9.73333 107.857 9.612 107.997 9.556C108.137 9.49067 108.277 9.48133 108.417 9.528C108.567 9.56533 108.679 9.64933 108.753 9.78C108.837 9.90133 108.851 10.0553 108.795 10.242L105.505 20.448ZM112.882 20.126C111.734 20.126 110.856 19.692 110.25 18.824C109.652 17.9467 109.354 16.6913 109.354 15.058C109.354 13.3967 109.652 12.1413 110.25 11.292C110.856 10.4333 111.734 10.004 112.882 10.004C114.039 10.004 114.916 10.4333 115.514 11.292C116.111 12.1413 116.41 13.392 116.41 15.044C116.41 16.6867 116.106 17.9467 115.5 18.824C114.902 19.692 114.03 20.126 112.882 20.126ZM112.882 18.922C113.591 18.922 114.118 18.6093 114.464 17.984C114.809 17.3493 114.982 16.3693 114.982 15.044C114.982 13.7093 114.809 12.7387 114.464 12.132C114.128 11.516 113.6 11.208 112.882 11.208C112.172 11.208 111.645 11.516 111.3 12.132C110.954 12.748 110.782 13.7187 110.782 15.044C110.782 16.3693 110.954 17.3493 111.3 17.984C111.645 18.6093 112.172 18.922 112.882 18.922ZM121.43 20.126C120.908 20.126 120.385 20.056 119.862 19.916C119.349 19.7667 118.878 19.538 118.448 19.23C118.271 19.118 118.164 18.978 118.126 18.81C118.098 18.642 118.122 18.4927 118.196 18.362C118.28 18.222 118.397 18.1287 118.546 18.082C118.705 18.026 118.878 18.0587 119.064 18.18C119.783 18.656 120.562 18.894 121.402 18.894C122.046 18.894 122.55 18.7213 122.914 18.376C123.278 18.0213 123.46 17.5593 123.46 16.99C123.46 16.402 123.288 15.9213 122.942 15.548C122.597 15.1747 122.116 14.988 121.5 14.988C121.146 14.988 120.81 15.0533 120.492 15.184C120.184 15.3053 119.895 15.5107 119.624 15.8C119.55 15.8747 119.456 15.9447 119.344 16.01C119.242 16.066 119.13 16.094 119.008 16.094C118.607 16.094 118.406 15.9027 118.406 15.52V10.774C118.406 10.3447 118.621 10.13 119.05 10.13H123.74C124.17 10.13 124.384 10.3307 124.384 10.732C124.384 11.1427 124.17 11.348 123.74 11.348H119.82V14.47C120.343 14.0127 121.006 13.784 121.808 13.784C122.434 13.784 122.975 13.9147 123.432 14.176C123.89 14.4373 124.244 14.806 124.496 15.282C124.748 15.7487 124.874 16.2947 124.874 16.92C124.874 17.5547 124.734 18.1147 124.454 18.6C124.174 19.076 123.778 19.4493 123.264 19.72C122.751 19.9907 122.14 20.126 121.43 20.126ZM132.76 20.126C132.163 20.126 131.635 19.986 131.178 19.706C130.73 19.4167 130.38 19.006 130.128 18.474C129.876 17.942 129.75 17.312 129.75 16.584C129.75 15.856 129.876 15.2307 130.128 14.708C130.38 14.176 130.73 13.7653 131.178 13.476C131.626 13.1867 132.153 13.042 132.76 13.042C133.273 13.042 133.731 13.154 134.132 13.378C134.533 13.602 134.832 13.9053 135.028 14.288V10.746C135.028 10.27 135.261 10.032 135.728 10.032C136.204 10.032 136.442 10.27 136.442 10.746V19.384C136.442 19.86 136.209 20.098 135.742 20.098C135.275 20.098 135.042 19.86 135.042 19.384V18.852C134.837 19.244 134.533 19.5567 134.132 19.79C133.731 20.014 133.273 20.126 132.76 20.126ZM133.124 19.034C133.703 19.034 134.169 18.824 134.524 18.404C134.879 17.984 135.056 17.3773 135.056 16.584C135.056 15.7907 134.879 15.1887 134.524 14.778C134.169 14.358 133.703 14.148 133.124 14.148C132.536 14.148 132.065 14.358 131.71 14.778C131.355 15.1887 131.178 15.7907 131.178 16.584C131.178 17.3773 131.355 17.984 131.71 18.404C132.065 18.824 132.536 19.034 133.124 19.034ZM141.634 20.126C140.514 20.126 139.632 19.8133 138.988 19.188C138.344 18.5533 138.022 17.69 138.022 16.598C138.022 15.898 138.162 15.282 138.442 14.75C138.731 14.2087 139.128 13.7887 139.632 13.49C140.136 13.1913 140.714 13.042 141.368 13.042C142.31 13.042 143.052 13.3453 143.594 13.952C144.135 14.5493 144.406 15.3753 144.406 16.43C144.406 16.7473 144.219 16.906 143.846 16.906H139.394C139.496 18.3247 140.248 19.034 141.648 19.034C141.928 19.034 142.222 19.0013 142.53 18.936C142.838 18.8613 143.136 18.7307 143.426 18.544C143.622 18.432 143.79 18.3947 143.93 18.432C144.079 18.46 144.186 18.5393 144.252 18.67C144.317 18.7913 144.326 18.9313 144.28 19.09C144.242 19.2393 144.135 19.37 143.958 19.482C143.64 19.6967 143.267 19.86 142.838 19.972C142.418 20.0747 142.016 20.126 141.634 20.126ZM141.424 14.036C140.836 14.036 140.369 14.218 140.024 14.582C139.678 14.946 139.468 15.4313 139.394 16.038H143.216C143.188 15.4033 143.02 14.9133 142.712 14.568C142.404 14.2133 141.974 14.036 141.424 14.036ZM150.479 20C150.003 20 149.765 19.7807 149.765 19.342C149.765 19.1087 149.891 18.8567 150.143 18.586L153.125 15.394C153.582 14.9087 153.909 14.4653 154.105 14.064C154.31 13.6533 154.413 13.2427 154.413 12.832C154.413 11.768 153.787 11.236 152.537 11.236C152.163 11.236 151.799 11.292 151.445 11.404C151.099 11.516 150.759 11.698 150.423 11.95C150.255 12.0713 150.096 12.1133 149.947 12.076C149.807 12.0293 149.695 11.936 149.611 11.796C149.536 11.656 149.508 11.5067 149.527 11.348C149.555 11.18 149.653 11.0353 149.821 10.914C150.203 10.6247 150.647 10.4007 151.151 10.242C151.655 10.0833 152.168 10.004 152.691 10.004C153.708 10.004 154.487 10.2373 155.029 10.704C155.579 11.1707 155.855 11.838 155.855 12.706C155.855 13.294 155.71 13.868 155.421 14.428C155.141 14.988 154.697 15.5853 154.091 16.22L151.641 18.782H155.715C156.144 18.782 156.359 18.9827 156.359 19.384C156.359 19.7947 156.144 20 155.715 20H150.479ZM161.239 20.126C160.091 20.126 159.214 19.692 158.607 18.824C158.01 17.9467 157.711 16.6913 157.711 15.058C157.711 13.3967 158.01 12.1413 158.607 11.292C159.214 10.4333 160.091 10.004 161.239 10.004C162.396 10.004 163.274 10.4333 163.871 11.292C164.468 12.1413 164.767 13.392 164.767 15.044C164.767 16.6867 164.464 17.9467 163.857 18.824C163.26 19.692 162.387 20.126 161.239 20.126ZM161.239 18.922C161.948 18.922 162.476 18.6093 162.821 17.984C163.166 17.3493 163.339 16.3693 163.339 15.044C163.339 13.7093 163.166 12.7387 162.821 12.132C162.485 11.516 161.958 11.208 161.239 11.208C160.53 11.208 160.002 11.516 159.657 12.132C159.312 12.748 159.139 13.7187 159.139 15.044C159.139 16.3693 159.312 17.3493 159.657 17.984C160.002 18.6093 160.53 18.922 161.239 18.922ZM167.268 20C166.792 20 166.554 19.7807 166.554 19.342C166.554 19.1087 166.68 18.8567 166.932 18.586L169.914 15.394C170.371 14.9087 170.698 14.4653 170.894 14.064C171.099 13.6533 171.202 13.2427 171.202 12.832C171.202 11.768 170.576 11.236 169.326 11.236C168.952 11.236 168.588 11.292 168.234 11.404C167.888 11.516 167.548 11.698 167.212 11.95C167.044 12.0713 166.885 12.1133 166.736 12.076C166.596 12.0293 166.484 11.936 166.4 11.796C166.325 11.656 166.297 11.5067 166.316 11.348C166.344 11.18 166.442 11.0353 166.61 10.914C166.992 10.6247 167.436 10.4007 167.94 10.242C168.444 10.0833 168.957 10.004 169.48 10.004C170.497 10.004 171.276 10.2373 171.818 10.704C172.368 11.1707 172.644 11.838 172.644 12.706C172.644 13.294 172.499 13.868 172.21 14.428C171.93 14.988 171.486 15.5853 170.88 16.22L168.43 18.782H172.504C172.933 18.782 173.148 18.9827 173.148 19.384C173.148 19.7947 172.933 20 172.504 20H167.268ZM175.662 20C175.186 20 174.948 19.7807 174.948 19.342C174.948 19.1087 175.074 18.8567 175.326 18.586L178.308 15.394C178.765 14.9087 179.092 14.4653 179.288 14.064C179.493 13.6533 179.596 13.2427 179.596 12.832C179.596 11.768 178.971 11.236 177.72 11.236C177.347 11.236 176.983 11.292 176.628 11.404C176.283 11.516 175.942 11.698 175.606 11.95C175.438 12.0713 175.279 12.1133 175.13 12.076C174.99 12.0293 174.878 11.936 174.794 11.796C174.719 11.656 174.691 11.5067 174.71 11.348C174.738 11.18 174.836 11.0353 175.004 10.914C175.387 10.6247 175.83 10.4007 176.334 10.242C176.838 10.0833 177.351 10.004 177.874 10.004C178.891 10.004 179.671 10.2373 180.212 10.704C180.763 11.1707 181.038 11.838 181.038 12.706C181.038 13.294 180.893 13.868 180.604 14.428C180.324 14.988 179.881 15.5853 179.274 16.22L176.824 18.782H180.898C181.327 18.782 181.542 18.9827 181.542 19.384C181.542 19.7947 181.327 20 180.898 20H175.662Z" fill="black"/>
</svg>
