<svg width="23" height="28" viewBox="0 0 23 28" fill="none" xmlns="http://www.w3.org/2000/svg">
<path d="M7.5 12.1865H5V14.8946H7.5V12.1865ZM12.5 12.1865H10V14.8946H12.5V12.1865ZM17.5 12.1865H15V14.8946H17.5V12.1865ZM20 2.70811H18.75V0H16.25V2.70811H6.25V0H3.75V2.70811H2.5C1.1125 2.70811 0.0125 3.92675 0.0125 5.41621L0 24.3729C0 25.8624 1.1125 27.0811 2.5 27.0811H20C21.375 27.0811 22.5 25.8624 22.5 24.3729V5.41621C22.5 3.92675 21.375 2.70811 20 2.70811ZM20 24.3729H2.5V9.47837H20V24.3729Z" fill="black"/>
</svg>
